# xmcd CD database file
#
# Track frame offsets:
#	150
#	10325
#	20675
#	31000
#	41237
#	49925
#	58862
#	67775
#	75362
#	84025
#	92900
#	101387
#	110925
#	120275
#	130525
#	139275
#	148437
#	157650
#
# Disc length: 2237 seconds
#
# Revision: 3
# Processed by: cddbd v1.5.2PL0 Copyright (c) Steve Scherf et al.
# Submitted via: CDex 1.70beta2
#
DISCID=e508bb12
DTITLE=Fats Domino - Greatest Hits - Disc 2
DYEAR=1900
DGENRE=
TTITLE0=Magic
TTITLE1=I Want To Walk You Home
TTITLE2=Stop The Clock
TTITLE3=Blue Monday
TTITLE4=Don't Come Knocking
TTITLE5=Walking To New Orleans
TTITLE6=Pit Your Arms Around Me Honey
TTITLE7=Shu Rah
TTITLE8=I Hear You Knocking
TTITLE9=What A Party
TTITLE10=Yalley Of Tears
TTITLE11=My Blue Heaven
TTITLE12=I Can Go On (Rosalle)
TTITLE13=When My Dreamboat Come Home
TTITLE14=Fell In Love On Monday
TTITLE15=I'm Gonna Be A Wheel Someday
TTITLE16=Danee With Mr. Domino
TTITLE17=My Real Name
EXTD=
EXTT0=
EXTT1=
EXTT2=
EXTT3=
EXTT4=
EXTT5=
EXTT6=
EXTT7=
EXTT8=
EXTT9=
EXTT10=
EXTT11=
EXTT12=
EXTT13=
EXTT14=
EXTT15=
EXTT16=
EXTT17=
PLAYORDER=
